<svg width="147" height="69" viewBox="0 0 147 69" fill="none" xmlns="http://www.w3.org/2000/svg">
<path d="M37.0539 0.927122H39.5387V40.1897H35.538C34.8357 40.1897 34.9004 40.2039 34.9004 39.3904V12.0816L20.8741 33.0657H18.6649L4.63885 12.3578V39.6668C4.63885 40.3292 4.70858 40.1897 4.00975 40.1897H0V0.927122H2.48489L19.8801 26.9917L37.0539 0.927122ZM62.6216 40.852C59.3816 40.852 56.6115 40.5946 54.3106 40.0792C52.0094 39.5639 49.3866 38.6803 46.4415 37.4284L47.685 34.3579C48.3191 32.7935 47.9627 32.9747 49.4993 33.6381C51.785 34.6246 53.7755 35.3366 55.4701 35.7718C57.4768 36.2869 59.7683 36.5451 62.3456 36.5451C65.2167 36.5451 67.4534 35.9465 69.0547 34.7503C70.6566 33.5536 71.4569 31.888 71.4569 29.7528C71.4569 27.7278 70.6376 26.2646 68.9995 25.3626C67.3614 24.4606 64.6093 23.6045 60.7438 22.7945C56.0687 21.8375 52.5805 20.549 50.2796 18.9289C47.9784 17.3093 46.8282 14.806 46.8282 11.419C46.8282 8.17908 48.0152 5.56548 50.3898 3.57747C52.7645 1.58946 56.1422 0.595703 60.5231 0.595703C65.7505 0.595703 70.4814 1.60795 74.7151 3.6327C73.6593 5.80317 73.5306 8.03987 71.5791 7.17908C68.1434 5.66171 64.4396 4.90289 60.4681 4.90289C57.5963 4.90289 55.4056 5.54698 53.8965 6.83566C52.3871 8.12409 51.6325 9.65222 51.6325 11.419C51.6325 13.3701 52.4791 14.806 54.1726 15.7265C55.866 16.6467 58.6088 17.5305 62.4009 18.3768C64.6461 18.8554 66.4961 19.3341 67.9505 19.8127C69.4046 20.2911 70.822 20.9449 72.2027 21.773C73.5831 22.6015 74.6049 23.6505 75.2672 24.921C75.9298 26.1906 76.2612 27.7093 76.2612 29.4766C76.2612 33.2687 75.0557 36.1124 72.6443 38.0085C70.2329 39.904 66.892 40.852 62.6216 40.852ZM97.0243 40.852C93.7846 40.852 91.0145 40.5946 88.7136 40.0792C86.4124 39.5639 83.7896 38.6803 80.8446 37.4284L82.0698 34.4039C82.6931 32.8642 82.3254 32.9532 83.7721 33.5878C86.1315 34.6211 88.1488 35.3319 89.8731 35.7718C91.8806 36.2837 94.1713 36.5451 96.7486 36.5451C99.6197 36.5451 101.856 35.9465 103.458 34.7503C105.059 33.5536 105.86 31.888 105.86 29.7528C105.86 27.7278 105.041 26.2646 103.402 25.3626C101.764 24.4606 99.0123 23.6045 95.1468 22.7945C90.4717 21.8375 86.9835 20.549 84.6824 18.9289C82.3814 17.3093 81.2312 14.806 81.2312 11.419C81.2312 8.17908 82.4182 5.56548 84.7928 3.57747C87.1675 1.58946 90.5452 0.595703 94.9261 0.595703C100.154 0.595703 104.884 1.60795 109.118 3.6327C108.127 5.6697 107.899 8.03387 106.059 7.21332C102.601 5.6737 98.8719 4.90289 94.8709 4.90289C91.9993 4.90289 89.8086 5.54698 88.2992 6.83566C86.7898 8.12409 86.0355 9.65222 86.0355 11.419C86.0355 13.3701 86.8818 14.806 88.5757 15.7265C90.269 16.6467 93.0118 17.5305 96.8036 18.3768C99.0491 18.8554 100.899 19.3341 102.353 19.8127C103.808 20.2911 105.225 20.9449 106.605 21.773C107.986 22.6015 109.008 23.6505 109.67 24.921C110.333 26.1906 110.664 27.7093 110.664 29.4766C110.664 33.2687 109.459 36.1124 107.047 38.0085C104.636 39.904 101.295 40.852 97.0243 40.852ZM132.698 1.25804C142.232 1.25804 147 5.63896 147 14.4008C147 23.3838 141.736 27.8752 131.207 27.8752H121.929V38.5533V39.6033C121.901 39.9215 121.646 40.1655 121.337 40.1897H121.24H120.19H117.291V1.25804H132.698ZM130.93 23.5678C138.44 23.5678 142.196 20.5308 142.196 14.456C142.196 8.529 138.846 5.56548 132.145 5.56548H121.929V23.5678H130.93Z" fill="white"/>
<path d="M5.73178 68.5463C8.58858 68.5463 10.5933 66.6667 10.5933 63.4842V58.9486H5.70679V60.352H9.1147V63.4842C9.1147 65.8649 7.73654 67.0929 5.73178 67.0929C3.75227 67.0929 2.37412 65.8649 2.37412 63.2338V55.8164C2.37412 53.1853 3.60182 51.9573 5.60657 51.9573C7.56109 51.9573 8.81403 53.0851 8.93925 55.5157H10.4429C10.3177 52.283 8.43812 50.5039 5.60657 50.5039C2.72478 50.5039 0.870483 52.3332 0.870483 55.7914V63.2338C0.870483 66.6667 2.87524 68.5463 5.73178 68.5463ZM24.4572 66.8172V50.7546H22.9036V68.2956H30.8721V66.8172H24.4572ZM46.9161 68.6212C50.0736 68.6212 51.9529 66.391 51.9529 62.8579V56.1923C51.9529 52.6589 50.0736 50.4287 46.9161 50.4287C43.7587 50.4287 41.8794 52.6589 41.8794 56.1923V62.8579C41.8794 66.391 43.7587 68.6212 46.9161 68.6212ZM46.9161 67.1178C44.636 67.1178 43.458 65.5642 43.458 62.8579V56.1923C43.458 53.486 44.636 51.9323 46.9161 51.9323C49.1966 51.9323 50.3743 53.486 50.3743 56.1923V62.8579C50.3743 65.5642 49.1966 67.1178 46.9161 67.1178ZM71.1794 59.1993C72.5576 58.8234 73.4598 57.4952 73.4598 55.3153C73.4598 52.4085 71.7308 50.7546 68.7987 50.7546H64.6893V68.2956H69.1999C72.3071 68.2956 74.1864 66.6417 74.1864 63.5095C74.1864 61.1538 73.0337 59.6252 71.1794 59.1993ZM68.7987 52.208C70.8787 52.208 71.881 53.1853 71.881 55.3153C71.881 57.4702 70.8787 58.573 68.849 58.573H66.2429V52.208H68.7987ZM69.1999 66.8422H66.2429V60.0263H68.9242C71.1294 60.0263 72.6078 61.2291 72.6078 63.5095C72.6078 65.8147 71.4801 66.8422 69.1999 66.8422ZM93.7389 68.2956H95.3927L90.7818 50.7546H89.078L84.4671 68.2956H86.121L87.1485 64.1861H92.7113L93.7389 68.2956ZM87.4991 62.7827L89.3034 55.5157C89.5791 54.4382 89.8296 53.1853 89.9048 52.7591H89.955C90.03 53.1853 90.2807 54.4382 90.5564 55.5157L92.3604 62.7827H87.4991ZM108.505 66.8172V50.7546H106.951V68.2956H114.92V66.8172H108.505Z" fill="white"/>
</svg>
